<svg width="16" height="16" viewBox="0 0 16 16" fill="none" xmlns="http://www.w3.org/2000/svg">
<path d="M10.6671 3.99996L5.05777 9.72396C4.53732 10.2444 4.53732 11.0895 5.05777 11.61C5.57823 12.1304 6.42332 12.1304 6.94377 11.61L12.5531 5.88596C13.2268 5.21228 13.4899 4.23036 13.2433 3.31009C12.9967 2.38982 12.2779 1.67101 11.3576 1.42442C10.4374 1.17784 9.45546 1.44094 8.78177 2.11463L3.19577 7.81529C2.17154 8.82297 1.76646 10.3026 2.13457 11.6914C2.50268 13.0803 3.58742 14.1651 4.97629 14.5332C6.36516 14.9013 7.84476 14.4962 8.85244 13.472L14.4384 7.77129" stroke="#4CAF50" stroke-width="1.33333" stroke-linecap="round" stroke-linejoin="round"/>
</svg>
